<svg width="368" height="213" viewBox="0 0 368 213" fill="none" xmlns="http://www.w3.org/2000/svg">
<rect width="368" height="213" fill="#4F3DFE"/>
<path fill-rule="evenodd" clip-rule="evenodd" d="M74.9229 67C74.4132 67 74 67.4132 74 67.9229V88.1724C74 88.6821 74.4132 89.0952 74.9229 89.0952H83.9043V97.5414C83.9043 98.0409 83.9043 98.2906 83.9984 98.4827C84.0885 98.6666 84.2372 98.8153 84.4212 98.9054C84.6132 98.9995 84.863 98.9995 85.3624 98.9995H104.541C105.041 98.9995 105.291 98.9995 105.483 98.9054C105.667 98.8153 105.815 98.6666 105.905 98.4827C106 98.2906 106 98.0409 106 97.5414V78.3624C106 77.863 106 77.6132 105.905 77.4212C105.815 77.2372 105.667 77.0885 105.483 76.9984C105.291 76.9043 105.041 76.9043 104.541 76.9043H96.0952V67.9229C96.0952 67.4132 95.6821 67 95.1724 67H74.9229Z" fill="white"/>
<g filter="url(#filter0_dddddd)">
<path d="M83.8379 78.2862C83.8379 77.7868 83.8379 77.5371 83.932 77.345C84.0221 77.1611 84.1708 77.0123 84.3547 76.9222C84.5468 76.8281 84.7966 76.8281 85.296 76.8281H96.095V87.4736C96.095 87.9741 96.095 88.2244 95.9968 88.3498C95.9036 88.4686 95.7582 88.5344 95.6075 88.5259C95.4485 88.5169 95.2605 88.3516 94.8846 88.0211L90.4478 84.1207C90.281 83.974 90.1975 83.9007 90.1041 83.8714C90.0145 83.8434 89.9184 83.8434 89.8288 83.8714C89.7353 83.9007 89.6519 83.974 89.4851 84.1207L83.8379 89.0852V78.2862Z" fill="#5430FF"/>
</g>
<path d="M135.458 96.6636L129.701 86.4953H127.234V96.6636H122V70.5701H131.794C133.813 70.5701 135.533 70.9315 136.953 71.6542C138.374 72.352 139.433 73.3115 140.131 74.5327C140.854 75.729 141.215 77.0748 141.215 78.5701C141.215 80.2897 140.717 81.8474 139.72 83.243C138.723 84.6137 137.24 85.5607 135.271 86.0841L141.514 96.6636H135.458ZM127.234 82.5701H131.607C133.028 82.5701 134.087 82.2336 134.785 81.5607C135.483 80.8629 135.832 79.9034 135.832 78.6822C135.832 77.486 135.483 76.5639 134.785 75.9159C134.087 75.243 133.028 74.9065 131.607 74.9065H127.234V82.5701Z" fill="white"/>
<path d="M164.453 85.8598C164.453 86.6075 164.403 87.2804 164.304 87.8785H149.164C149.288 89.3738 149.812 90.5452 150.734 91.3925C151.656 92.2399 152.79 92.6636 154.136 92.6636C156.079 92.6636 157.463 91.8287 158.285 90.1589H163.93C163.332 92.1526 162.185 93.7975 160.491 95.0935C158.796 96.3645 156.715 97 154.248 97C152.254 97 150.459 96.5639 148.864 95.6916C147.294 94.7944 146.061 93.5358 145.164 91.9159C144.291 90.2959 143.855 88.4268 143.855 86.3084C143.855 84.1651 144.291 82.2835 145.164 80.6636C146.036 79.0436 147.257 77.7975 148.827 76.9252C150.397 76.053 152.204 75.6168 154.248 75.6168C156.217 75.6168 157.974 76.0405 159.519 76.8878C161.089 77.7352 162.298 78.9439 163.145 80.514C164.017 82.0592 164.453 83.8411 164.453 85.8598ZM159.033 84.3645C159.008 83.0187 158.522 81.947 157.575 81.1495C156.628 80.3271 155.469 79.9159 154.098 79.9159C152.802 79.9159 151.706 80.3146 150.808 81.1122C149.936 81.8847 149.4 82.9688 149.201 84.3645H159.033Z" fill="white"/>
<path d="M166.18 86.2336C166.18 84.1402 166.591 82.2835 167.414 80.6636C168.261 79.0436 169.395 77.7975 170.815 76.9252C172.261 76.053 173.868 75.6168 175.638 75.6168C177.183 75.6168 178.529 75.9283 179.675 76.5514C180.847 77.1745 181.781 77.9595 182.479 78.9065V75.9533H187.75V96.6636H182.479V93.6355C181.806 94.6075 180.871 95.4174 179.675 96.0654C178.504 96.6885 177.146 97 175.6 97C173.856 97 172.261 96.5514 170.815 95.6542C169.395 94.757 168.261 93.4984 167.414 91.8785C166.591 90.2336 166.18 88.352 166.18 86.2336ZM182.479 86.3084C182.479 85.0374 182.23 83.9533 181.731 83.0561C181.233 82.134 180.56 81.4361 179.713 80.9626C178.865 80.4642 177.956 80.215 176.984 80.215C176.012 80.215 175.114 80.4517 174.292 80.9252C173.47 81.3988 172.797 82.0966 172.273 83.0187C171.775 83.9159 171.526 84.9875 171.526 86.2336C171.526 87.4798 171.775 88.5763 172.273 89.5234C172.797 90.4455 173.47 91.1558 174.292 91.6542C175.139 92.1526 176.037 92.4019 176.984 92.4019C177.956 92.4019 178.865 92.1651 179.713 91.6916C180.56 91.1931 181.233 90.4953 181.731 89.5981C182.23 88.676 182.479 87.5794 182.479 86.3084Z" fill="white"/>
<path d="M190.768 86.2336C190.768 84.1402 191.179 82.2835 192.002 80.6636C192.849 79.0436 193.996 77.7975 195.441 76.9252C196.886 76.053 198.494 75.6168 200.263 75.6168C201.609 75.6168 202.893 75.9159 204.114 76.514C205.335 77.0872 206.307 77.8598 207.03 78.8318V69H212.338V96.6636H207.03V93.5981C206.382 94.6199 205.472 95.4424 204.301 96.0654C203.129 96.6885 201.771 97 200.226 97C198.481 97 196.886 96.5514 195.441 95.6542C193.996 94.757 192.849 93.4984 192.002 91.8785C191.179 90.2336 190.768 88.352 190.768 86.2336ZM207.067 86.3084C207.067 85.0374 206.818 83.9533 206.32 83.0561C205.821 82.134 205.148 81.4361 204.301 80.9626C203.453 80.4642 202.544 80.215 201.572 80.215C200.6 80.215 199.703 80.4517 198.88 80.9252C198.058 81.3988 197.385 82.0966 196.862 83.0187C196.363 83.9159 196.114 84.9875 196.114 86.2336C196.114 87.4798 196.363 88.5763 196.862 89.5234C197.385 90.4455 198.058 91.1558 198.88 91.6542C199.728 92.1526 200.625 92.4019 201.572 92.4019C202.544 92.4019 203.453 92.1651 204.301 91.6916C205.148 91.1931 205.821 90.4953 206.32 89.5981C206.818 88.676 207.067 87.5794 207.067 86.3084Z" fill="white"/>
<path d="M215.356 86.2336C215.356 84.1402 215.768 82.2835 216.59 80.6636C217.437 79.0436 218.571 77.7975 219.992 76.9252C221.437 76.053 223.045 75.6168 224.814 75.6168C226.359 75.6168 227.705 75.9283 228.852 76.5514C230.023 77.1745 230.958 77.9595 231.655 78.9065V75.9533H236.926V96.6636H231.655V93.6355C230.982 94.6075 230.048 95.4174 228.852 96.0654C227.68 96.6885 226.322 97 224.777 97C223.032 97 221.437 96.5514 219.992 95.6542C218.571 94.757 217.437 93.4984 216.59 91.8785C215.768 90.2336 215.356 88.352 215.356 86.2336ZM231.655 86.3084C231.655 85.0374 231.406 83.9533 230.908 83.0561C230.409 82.134 229.736 81.4361 228.889 80.9626C228.042 80.4642 227.132 80.215 226.16 80.215C225.188 80.215 224.291 80.4517 223.468 80.9252C222.646 81.3988 221.973 82.0966 221.45 83.0187C220.951 83.9159 220.702 84.9875 220.702 86.2336C220.702 87.4798 220.951 88.5763 221.45 89.5234C221.973 90.4455 222.646 91.1558 223.468 91.6542C224.316 92.1526 225.213 92.4019 226.16 92.4019C227.132 92.4019 228.042 92.1651 228.889 91.6916C229.736 91.1931 230.409 90.4953 230.908 89.5981C231.406 88.676 231.655 87.5794 231.655 86.3084Z" fill="white"/>
<path d="M246.524 78.9813C247.197 77.9844 248.119 77.1745 249.29 76.5514C250.487 75.9283 251.845 75.6168 253.365 75.6168C255.135 75.6168 256.73 76.053 258.15 76.9252C259.596 77.7975 260.73 79.0436 261.552 80.6636C262.399 82.2586 262.823 84.1153 262.823 86.2336C262.823 88.352 262.399 90.2336 261.552 91.8785C260.73 93.4984 259.596 94.757 258.15 95.6542C256.73 96.5514 255.135 97 253.365 97C251.82 97 250.462 96.7009 249.29 96.1028C248.144 95.4797 247.222 94.6822 246.524 93.7103V96.6636H241.29V69H246.524V78.9813ZM257.477 86.2336C257.477 84.9875 257.216 83.9159 256.692 83.0187C256.194 82.0966 255.521 81.3988 254.673 80.9252C253.851 80.4517 252.954 80.215 251.982 80.215C251.035 80.215 250.138 80.4642 249.29 80.9626C248.468 81.4361 247.795 82.134 247.272 83.0561C246.773 83.9782 246.524 85.0623 246.524 86.3084C246.524 87.5545 246.773 88.6386 247.272 89.5607C247.795 90.4829 248.468 91.1931 249.29 91.6916C250.138 92.1651 251.035 92.4019 251.982 92.4019C252.954 92.4019 253.851 92.1526 254.673 91.6542C255.521 91.1558 256.194 90.4455 256.692 89.5234C257.216 88.6012 257.477 87.5047 257.477 86.2336Z" fill="white"/>
<path d="M271.112 69V96.6636H265.878V69H271.112Z" fill="white"/>
<path d="M294.788 85.8598C294.788 86.6075 294.738 87.2804 294.638 87.8785H279.498C279.623 89.3738 280.146 90.5452 281.068 91.3925C281.99 92.2399 283.124 92.6636 284.47 92.6636C286.414 92.6636 287.797 91.8287 288.619 90.1589H294.264C293.666 92.1526 292.52 93.7975 290.825 95.0935C289.13 96.3645 287.049 97 284.582 97C282.588 97 280.794 96.5639 279.199 95.6916C277.629 94.7944 276.395 93.5358 275.498 91.9159C274.626 90.2959 274.19 88.4268 274.19 86.3084C274.19 84.1651 274.626 82.2835 275.498 80.6636C276.37 79.0436 277.591 77.7975 279.161 76.9252C280.732 76.053 282.538 75.6168 284.582 75.6168C286.551 75.6168 288.308 76.0405 289.853 76.8878C291.423 77.7352 292.632 78.9439 293.479 80.514C294.352 82.0592 294.788 83.8411 294.788 85.8598ZM289.367 84.3645C289.342 83.0187 288.856 81.947 287.909 81.1495C286.962 80.3271 285.803 79.9159 284.433 79.9159C283.137 79.9159 282.04 80.3146 281.143 81.1122C280.271 81.8847 279.735 82.9688 279.535 84.3645H289.367Z" fill="white"/>
<path opacity="0.9" d="M87.3967 117.66L84.9247 126H83.3767L81.6247 119.688L79.7647 126L78.2287 126.012L75.8647 117.66H77.3167L79.0447 124.452L80.9167 117.66H82.4527L84.1927 124.416L85.9327 117.66H87.3967ZM94.585 122.532C94.585 122.78 94.569 123.004 94.537 123.204H89.485C89.525 123.732 89.721 124.156 90.073 124.476C90.425 124.796 90.857 124.956 91.369 124.956C92.105 124.956 92.625 124.648 92.929 124.032H94.405C94.205 124.64 93.841 125.14 93.313 125.532C92.793 125.916 92.145 126.108 91.369 126.108C90.737 126.108 90.169 125.968 89.665 125.688C89.169 125.4 88.777 125 88.489 124.488C88.209 123.968 88.069 123.368 88.069 122.688C88.069 122.008 88.205 121.412 88.477 120.9C88.757 120.38 89.145 119.98 89.641 119.7C90.145 119.42 90.721 119.28 91.369 119.28C91.993 119.28 92.549 119.416 93.037 119.688C93.525 119.96 93.905 120.344 94.177 120.84C94.449 121.328 94.585 121.892 94.585 122.532ZM93.157 122.1C93.149 121.596 92.969 121.192 92.617 120.888C92.265 120.584 91.829 120.432 91.309 120.432C90.837 120.432 90.433 120.584 90.097 120.888C89.761 121.184 89.561 121.588 89.497 122.1H93.157ZM97.2993 117.12V126H95.9313V117.12H97.2993ZM98.6393 122.688C98.6393 122.008 98.7753 121.412 99.0473 120.9C99.3273 120.38 99.7113 119.98 100.199 119.7C100.687 119.42 101.247 119.28 101.879 119.28C102.679 119.28 103.339 119.472 103.859 119.856C104.387 120.232 104.743 120.772 104.927 121.476H103.451C103.331 121.148 103.139 120.892 102.875 120.708C102.611 120.524 102.279 120.432 101.879 120.432C101.319 120.432 100.871 120.632 100.535 121.032C100.207 121.424 100.043 121.976 100.043 122.688C100.043 123.4 100.207 123.956 100.535 124.356C100.871 124.756 101.319 124.956 101.879 124.956C102.671 124.956 103.195 124.608 103.451 123.912H104.927C104.735 124.584 104.375 125.12 103.847 125.52C103.319 125.912 102.663 126.108 101.879 126.108C101.247 126.108 100.687 125.968 100.199 125.688C99.7113 125.4 99.3273 125 99.0473 124.488C98.7753 123.968 98.6393 123.368 98.6393 122.688ZM109.159 126.108C108.535 126.108 107.971 125.968 107.467 125.688C106.963 125.4 106.567 125 106.279 124.488C105.991 123.968 105.847 123.368 105.847 122.688C105.847 122.016 105.995 121.42 106.291 120.9C106.587 120.38 106.991 119.98 107.503 119.7C108.015 119.42 108.587 119.28 109.219 119.28C109.851 119.28 110.423 119.42 110.935 119.7C111.447 119.98 111.851 120.38 112.147 120.9C112.443 121.42 112.591 122.016 112.591 122.688C112.591 123.36 112.439 123.956 112.135 124.476C111.831 124.996 111.415 125.4 110.887 125.688C110.367 125.968 109.791 126.108 109.159 126.108ZM109.159 124.92C109.511 124.92 109.839 124.836 110.143 124.668C110.455 124.5 110.707 124.248 110.899 123.912C111.091 123.576 111.187 123.168 111.187 122.688C111.187 122.208 111.095 121.804 110.911 121.476C110.727 121.14 110.483 120.888 110.179 120.72C109.875 120.552 109.547 120.468 109.195 120.468C108.843 120.468 108.515 120.552 108.211 120.72C107.915 120.888 107.679 121.14 107.503 121.476C107.327 121.804 107.239 122.208 107.239 122.688C107.239 123.4 107.419 123.952 107.779 124.344C108.147 124.728 108.607 124.92 109.159 124.92ZM121.947 119.28C122.467 119.28 122.931 119.388 123.339 119.604C123.755 119.82 124.079 120.14 124.311 120.564C124.551 120.988 124.671 121.5 124.671 122.1V126H123.315V122.304C123.315 121.712 123.167 121.26 122.871 120.948C122.575 120.628 122.171 120.468 121.659 120.468C121.147 120.468 120.739 120.628 120.435 120.948C120.139 121.26 119.991 121.712 119.991 122.304V126H118.635V122.304C118.635 121.712 118.487 121.26 118.191 120.948C117.895 120.628 117.491 120.468 116.979 120.468C116.467 120.468 116.059 120.628 115.755 120.948C115.459 121.26 115.311 121.712 115.311 122.304V126H113.943V119.388H115.311V120.144C115.535 119.872 115.819 119.66 116.163 119.508C116.507 119.356 116.875 119.28 117.267 119.28C117.795 119.28 118.267 119.392 118.683 119.616C119.099 119.84 119.419 120.164 119.643 120.588C119.843 120.188 120.155 119.872 120.579 119.64C121.003 119.4 121.459 119.28 121.947 119.28ZM132.472 122.532C132.472 122.78 132.456 123.004 132.424 123.204H127.372C127.412 123.732 127.608 124.156 127.96 124.476C128.312 124.796 128.744 124.956 129.256 124.956C129.992 124.956 130.512 124.648 130.816 124.032H132.292C132.092 124.64 131.728 125.14 131.2 125.532C130.68 125.916 130.032 126.108 129.256 126.108C128.624 126.108 128.056 125.968 127.552 125.688C127.056 125.4 126.664 125 126.376 124.488C126.096 123.968 125.956 123.368 125.956 122.688C125.956 122.008 126.092 121.412 126.364 120.9C126.644 120.38 127.032 119.98 127.528 119.7C128.032 119.42 128.608 119.28 129.256 119.28C129.88 119.28 130.436 119.416 130.924 119.688C131.412 119.96 131.792 120.344 132.064 120.84C132.336 121.328 132.472 121.892 132.472 122.532ZM131.044 122.1C131.036 121.596 130.856 121.192 130.504 120.888C130.152 120.584 129.716 120.432 129.196 120.432C128.724 120.432 128.32 120.584 127.984 120.888C127.648 121.184 127.448 121.588 127.384 122.1H131.044ZM135.534 117.66L135.378 123.48H134.238L134.082 117.66H135.534ZM134.85 126.084C134.602 126.084 134.394 126 134.226 125.832C134.058 125.664 133.974 125.456 133.974 125.208C133.974 124.96 134.058 124.752 134.226 124.584C134.394 124.416 134.602 124.332 134.85 124.332C135.09 124.332 135.294 124.416 135.462 124.584C135.63 124.752 135.714 124.96 135.714 125.208C135.714 125.456 135.63 125.664 135.462 125.832C135.294 126 135.09 126.084 134.85 126.084ZM145.123 126L143.203 122.664H142.159V126H140.791V117.66H143.671C144.311 117.66 144.851 117.772 145.291 117.996C145.739 118.22 146.071 118.52 146.287 118.896C146.511 119.272 146.623 119.692 146.623 120.156C146.623 120.7 146.463 121.196 146.143 121.644C145.831 122.084 145.347 122.384 144.691 122.544L146.755 126H145.123ZM142.159 121.572H143.671C144.183 121.572 144.567 121.444 144.823 121.188C145.087 120.932 145.219 120.588 145.219 120.156C145.219 119.724 145.091 119.388 144.835 119.148C144.579 118.9 144.191 118.776 143.671 118.776H142.159V121.572ZM154.433 122.532C154.433 122.78 154.417 123.004 154.385 123.204H149.333C149.373 123.732 149.569 124.156 149.921 124.476C150.273 124.796 150.705 124.956 151.217 124.956C151.953 124.956 152.473 124.648 152.777 124.032H154.253C154.053 124.64 153.689 125.14 153.161 125.532C152.641 125.916 151.993 126.108 151.217 126.108C150.585 126.108 150.017 125.968 149.513 125.688C149.017 125.4 148.625 125 148.337 124.488C148.057 123.968 147.917 123.368 147.917 122.688C147.917 122.008 148.053 121.412 148.325 120.9C148.605 120.38 148.993 119.98 149.489 119.7C149.993 119.42 150.569 119.28 151.217 119.28C151.841 119.28 152.397 119.416 152.885 119.688C153.373 119.96 153.753 120.344 154.025 120.84C154.297 121.328 154.433 121.892 154.433 122.532ZM153.005 122.1C152.997 121.596 152.817 121.192 152.465 120.888C152.113 120.584 151.677 120.432 151.157 120.432C150.685 120.432 150.281 120.584 149.945 120.888C149.609 121.184 149.409 121.588 149.345 122.1H153.005ZM155.323 122.664C155.323 122 155.459 121.412 155.731 120.9C156.011 120.388 156.387 119.992 156.859 119.712C157.339 119.424 157.867 119.28 158.443 119.28C158.963 119.28 159.415 119.384 159.799 119.592C160.191 119.792 160.503 120.044 160.735 120.348V119.388H162.115V126H160.735V125.016C160.503 125.328 160.187 125.588 159.787 125.796C159.387 126.004 158.931 126.108 158.419 126.108C157.851 126.108 157.331 125.964 156.859 125.676C156.387 125.38 156.011 124.972 155.731 124.452C155.459 123.924 155.323 123.328 155.323 122.664ZM160.735 122.688C160.735 122.232 160.639 121.836 160.447 121.5C160.263 121.164 160.019 120.908 159.715 120.732C159.411 120.556 159.083 120.468 158.731 120.468C158.379 120.468 158.051 120.556 157.747 120.732C157.443 120.9 157.195 121.152 157.003 121.488C156.819 121.816 156.727 122.208 156.727 122.664C156.727 123.12 156.819 123.52 157.003 123.864C157.195 124.208 157.443 124.472 157.747 124.656C158.059 124.832 158.387 124.92 158.731 124.92C159.083 124.92 159.411 124.832 159.715 124.656C160.019 124.48 160.263 124.224 160.447 123.888C160.639 123.544 160.735 123.144 160.735 122.688ZM163.456 122.664C163.456 122 163.592 121.412 163.864 120.9C164.144 120.388 164.52 119.992 164.992 119.712C165.472 119.424 166.004 119.28 166.588 119.28C167.02 119.28 167.444 119.376 167.86 119.568C168.284 119.752 168.62 120 168.868 120.312V117.12H170.248V126H168.868V125.004C168.644 125.324 168.332 125.588 167.932 125.796C167.54 126.004 167.088 126.108 166.576 126.108C166 126.108 165.472 125.964 164.992 125.676C164.52 125.38 164.144 124.972 163.864 124.452C163.592 123.924 163.456 123.328 163.456 122.664ZM168.868 122.688C168.868 122.232 168.772 121.836 168.58 121.5C168.396 121.164 168.152 120.908 167.848 120.732C167.544 120.556 167.216 120.468 166.864 120.468C166.512 120.468 166.184 120.556 165.88 120.732C165.576 120.9 165.328 121.152 165.136 121.488C164.952 121.816 164.86 122.208 164.86 122.664C164.86 123.12 164.952 123.52 165.136 123.864C165.328 124.208 165.576 124.472 165.88 124.656C166.192 124.832 166.52 124.92 166.864 124.92C167.216 124.92 167.544 124.832 167.848 124.656C168.152 124.48 168.396 124.224 168.58 123.888C168.772 123.544 168.868 123.144 168.868 122.688ZM177.997 119.388L173.941 129.108H172.525L173.869 125.892L171.265 119.388H172.789L174.649 124.428L176.581 119.388H177.997ZM183.742 120.504V124.164C183.742 124.412 183.798 124.592 183.91 124.704C184.03 124.808 184.23 124.86 184.51 124.86H185.35V126H184.27C183.654 126 183.182 125.856 182.854 125.568C182.526 125.28 182.362 124.812 182.362 124.164V120.504H181.582V119.388H182.362V117.744H183.742V119.388H185.35V120.504H183.742ZM189.479 126.108C188.855 126.108 188.291 125.968 187.787 125.688C187.283 125.4 186.887 125 186.599 124.488C186.311 123.968 186.167 123.368 186.167 122.688C186.167 122.016 186.315 121.42 186.611 120.9C186.907 120.38 187.311 119.98 187.823 119.7C188.335 119.42 188.907 119.28 189.539 119.28C190.171 119.28 190.743 119.42 191.255 119.7C191.767 119.98 192.171 120.38 192.467 120.9C192.763 121.42 192.911 122.016 192.911 122.688C192.911 123.36 192.759 123.956 192.455 124.476C192.151 124.996 191.735 125.4 191.207 125.688C190.687 125.968 190.111 126.108 189.479 126.108ZM189.479 124.92C189.831 124.92 190.159 124.836 190.463 124.668C190.775 124.5 191.027 124.248 191.219 123.912C191.411 123.576 191.507 123.168 191.507 122.688C191.507 122.208 191.415 121.804 191.231 121.476C191.047 121.14 190.803 120.888 190.499 120.72C190.195 120.552 189.867 120.468 189.515 120.468C189.163 120.468 188.835 120.552 188.531 120.72C188.235 120.888 187.999 121.14 187.823 121.476C187.647 121.804 187.559 122.208 187.559 122.688C187.559 123.4 187.739 123.952 188.099 124.344C188.467 124.728 188.927 124.92 189.479 124.92ZM201.371 126L199.523 122.736H198.731V126H197.051V117.624H200.195C200.843 117.624 201.395 117.74 201.851 117.972C202.307 118.196 202.647 118.504 202.871 118.896C203.103 119.28 203.219 119.712 203.219 120.192C203.219 120.744 203.059 121.244 202.739 121.692C202.419 122.132 201.943 122.436 201.311 122.604L203.315 126H201.371ZM198.731 121.476H200.135C200.591 121.476 200.931 121.368 201.155 121.152C201.379 120.928 201.491 120.62 201.491 120.228C201.491 119.844 201.379 119.548 201.155 119.34C200.931 119.124 200.591 119.016 200.135 119.016H198.731V121.476ZM210.918 122.532C210.918 122.772 210.902 122.988 210.87 123.18H206.01C206.05 123.66 206.218 124.036 206.514 124.308C206.81 124.58 207.174 124.716 207.606 124.716C208.23 124.716 208.674 124.448 208.938 123.912H210.75C210.558 124.552 210.19 125.08 209.646 125.496C209.102 125.904 208.434 126.108 207.642 126.108C207.002 126.108 206.426 125.968 205.914 125.688C205.41 125.4 205.014 124.996 204.726 124.476C204.446 123.956 204.306 123.356 204.306 122.676C204.306 121.988 204.446 121.384 204.726 120.864C205.006 120.344 205.398 119.944 205.902 119.664C206.406 119.384 206.986 119.244 207.642 119.244C208.274 119.244 208.838 119.38 209.334 119.652C209.838 119.924 210.226 120.312 210.498 120.816C210.778 121.312 210.918 121.884 210.918 122.532ZM209.178 122.052C209.17 121.62 209.014 121.276 208.71 121.02C208.406 120.756 208.034 120.624 207.594 120.624C207.178 120.624 206.826 120.752 206.538 121.008C206.258 121.256 206.086 121.604 206.022 122.052H209.178ZM211.712 122.652C211.712 121.98 211.844 121.384 212.108 120.864C212.38 120.344 212.744 119.944 213.2 119.664C213.664 119.384 214.18 119.244 214.748 119.244C215.244 119.244 215.676 119.344 216.044 119.544C216.42 119.744 216.72 119.996 216.944 120.3V119.352H218.636V126H216.944V125.028C216.728 125.34 216.428 125.6 216.044 125.808C215.668 126.008 215.232 126.108 214.736 126.108C214.176 126.108 213.664 125.964 213.2 125.676C212.744 125.388 212.38 124.984 212.108 124.464C211.844 123.936 211.712 123.332 211.712 122.652ZM216.944 122.676C216.944 122.268 216.864 121.92 216.704 121.632C216.544 121.336 216.328 121.112 216.056 120.96C215.784 120.8 215.492 120.72 215.18 120.72C214.868 120.72 214.58 120.796 214.316 120.948C214.052 121.1 213.836 121.324 213.668 121.62C213.508 121.908 213.428 122.252 213.428 122.652C213.428 123.052 213.508 123.404 213.668 123.708C213.836 124.004 214.052 124.232 214.316 124.392C214.588 124.552 214.876 124.632 215.18 124.632C215.492 124.632 215.784 124.556 216.056 124.404C216.328 124.244 216.544 124.02 216.704 123.732C216.864 123.436 216.944 123.084 216.944 122.676ZM219.845 122.652C219.845 121.98 219.977 121.384 220.241 120.864C220.513 120.344 220.881 119.944 221.345 119.664C221.809 119.384 222.325 119.244 222.893 119.244C223.325 119.244 223.737 119.34 224.129 119.532C224.521 119.716 224.833 119.964 225.065 120.276V117.12H226.769V126H225.065V125.016C224.857 125.344 224.565 125.608 224.189 125.808C223.813 126.008 223.377 126.108 222.881 126.108C222.321 126.108 221.809 125.964 221.345 125.676C220.881 125.388 220.513 124.984 220.241 124.464C219.977 123.936 219.845 123.332 219.845 122.652ZM225.077 122.676C225.077 122.268 224.997 121.92 224.837 121.632C224.677 121.336 224.461 121.112 224.189 120.96C223.917 120.8 223.625 120.72 223.313 120.72C223.001 120.72 222.713 120.796 222.449 120.948C222.185 121.1 221.969 121.324 221.801 121.62C221.641 121.908 221.561 122.252 221.561 122.652C221.561 123.052 221.641 123.404 221.801 123.708C221.969 124.004 222.185 124.232 222.449 124.392C222.721 124.552 223.009 124.632 223.313 124.632C223.625 124.632 223.917 124.556 224.189 124.404C224.461 124.244 224.677 124.02 224.837 123.732C224.997 123.436 225.077 123.084 225.077 122.676ZM230.837 122.652C230.837 121.98 230.969 121.384 231.233 120.864C231.505 120.344 231.869 119.944 232.325 119.664C232.789 119.384 233.305 119.244 233.873 119.244C234.369 119.244 234.801 119.344 235.169 119.544C235.545 119.744 235.845 119.996 236.069 120.3V119.352H237.761V126H236.069V125.028C235.853 125.34 235.553 125.6 235.169 125.808C234.793 126.008 234.357 126.108 233.861 126.108C233.301 126.108 232.789 125.964 232.325 125.676C231.869 125.388 231.505 124.984 231.233 124.464C230.969 123.936 230.837 123.332 230.837 122.652ZM236.069 122.676C236.069 122.268 235.989 121.92 235.829 121.632C235.669 121.336 235.453 121.112 235.181 120.96C234.909 120.8 234.617 120.72 234.305 120.72C233.993 120.72 233.705 120.796 233.441 120.948C233.177 121.1 232.961 121.324 232.793 121.62C232.633 121.908 232.553 122.252 232.553 122.652C232.553 123.052 232.633 123.404 232.793 123.708C232.961 124.004 233.177 124.232 233.441 124.392C233.713 124.552 234.001 124.632 234.305 124.632C234.617 124.632 234.909 124.556 235.181 124.404C235.453 124.244 235.669 124.02 235.829 123.732C235.989 123.436 236.069 123.084 236.069 122.676ZM243.086 119.256C243.878 119.256 244.518 119.508 245.006 120.012C245.494 120.508 245.738 121.204 245.738 122.1V126H244.058V122.328C244.058 121.8 243.926 121.396 243.662 121.116C243.398 120.828 243.038 120.684 242.582 120.684C242.118 120.684 241.75 120.828 241.478 121.116C241.214 121.396 241.082 121.8 241.082 122.328V126H239.402V119.352H241.082V120.18C241.306 119.892 241.59 119.668 241.934 119.508C242.286 119.34 242.67 119.256 243.086 119.256ZM246.904 122.652C246.904 121.98 247.036 121.384 247.3 120.864C247.572 120.344 247.94 119.944 248.404 119.664C248.868 119.384 249.384 119.244 249.952 119.244C250.384 119.244 250.796 119.34 251.188 119.532C251.58 119.716 251.892 119.964 252.124 120.276V117.12H253.828V126H252.124V125.016C251.916 125.344 251.624 125.608 251.248 125.808C250.872 126.008 250.436 126.108 249.94 126.108C249.38 126.108 248.868 125.964 248.404 125.676C247.94 125.388 247.572 124.984 247.3 124.464C247.036 123.936 246.904 123.332 246.904 122.652ZM252.136 122.676C252.136 122.268 252.056 121.92 251.896 121.632C251.736 121.336 251.52 121.112 251.248 120.96C250.976 120.8 250.684 120.72 250.372 120.72C250.06 120.72 249.772 120.796 249.508 120.948C249.244 121.1 249.028 121.324 248.86 121.62C248.7 121.908 248.62 122.252 248.62 122.652C248.62 123.052 248.7 123.404 248.86 123.708C249.028 124.004 249.244 124.232 249.508 124.392C249.78 124.552 250.068 124.632 250.372 124.632C250.684 124.632 250.976 124.556 251.248 124.404C251.52 124.244 251.736 124.02 251.896 123.732C252.056 123.436 252.136 123.084 252.136 122.676ZM260.872 126.108C260.328 126.108 259.84 126.012 259.408 125.82C258.976 125.62 258.632 125.352 258.376 125.016C258.128 124.68 257.992 124.308 257.968 123.9H259.66C259.692 124.156 259.816 124.368 260.032 124.536C260.256 124.704 260.532 124.788 260.86 124.788C261.18 124.788 261.428 124.724 261.604 124.596C261.788 124.468 261.88 124.304 261.88 124.104C261.88 123.888 261.768 123.728 261.544 123.624C261.328 123.512 260.98 123.392 260.5 123.264C260.004 123.144 259.596 123.02 259.276 122.892C258.964 122.764 258.692 122.568 258.46 122.304C258.236 122.04 258.124 121.684 258.124 121.236C258.124 120.868 258.228 120.532 258.436 120.228C258.652 119.924 258.956 119.684 259.348 119.508C259.748 119.332 260.216 119.244 260.752 119.244C261.544 119.244 262.176 119.444 262.648 119.844C263.12 120.236 263.38 120.768 263.428 121.44H261.82C261.796 121.176 261.684 120.968 261.484 120.816C261.292 120.656 261.032 120.576 260.704 120.576C260.4 120.576 260.164 120.632 259.996 120.744C259.836 120.856 259.756 121.012 259.756 121.212C259.756 121.436 259.868 121.608 260.092 121.728C260.316 121.84 260.664 121.956 261.136 122.076C261.616 122.196 262.012 122.32 262.324 122.448C262.636 122.576 262.904 122.776 263.128 123.048C263.36 123.312 263.48 123.664 263.488 124.104C263.488 124.488 263.38 124.832 263.164 125.136C262.956 125.44 262.652 125.68 262.252 125.856C261.86 126.024 261.4 126.108 260.872 126.108ZM268.611 119.256C269.115 119.256 269.563 119.368 269.955 119.592C270.347 119.808 270.651 120.132 270.867 120.564C271.091 120.988 271.203 121.5 271.203 122.1V126H269.523V122.328C269.523 121.8 269.391 121.396 269.127 121.116C268.863 120.828 268.503 120.684 268.047 120.684C267.583 120.684 267.215 120.828 266.943 121.116C266.679 121.396 266.547 121.8 266.547 122.328V126H264.867V117.12H266.547V120.18C266.763 119.892 267.051 119.668 267.411 119.508C267.771 119.34 268.171 119.256 268.611 119.256ZM272.369 122.652C272.369 121.98 272.501 121.384 272.765 120.864C273.037 120.344 273.401 119.944 273.857 119.664C274.321 119.384 274.837 119.244 275.405 119.244C275.901 119.244 276.333 119.344 276.701 119.544C277.077 119.744 277.377 119.996 277.601 120.3V119.352H279.293V126H277.601V125.028C277.385 125.34 277.085 125.6 276.701 125.808C276.325 126.008 275.889 126.108 275.393 126.108C274.833 126.108 274.321 125.964 273.857 125.676C273.401 125.388 273.037 124.984 272.765 124.464C272.501 123.936 272.369 123.332 272.369 122.652ZM277.601 122.676C277.601 122.268 277.521 121.92 277.361 121.632C277.201 121.336 276.985 121.112 276.713 120.96C276.441 120.8 276.149 120.72 275.837 120.72C275.525 120.72 275.237 120.796 274.973 120.948C274.709 121.1 274.493 121.324 274.325 121.62C274.165 121.908 274.085 122.252 274.085 122.652C274.085 123.052 274.165 123.404 274.325 123.708C274.493 124.004 274.709 124.232 274.973 124.392C275.245 124.552 275.533 124.632 275.837 124.632C276.149 124.632 276.441 124.556 276.713 124.404C276.985 124.244 277.201 124.02 277.361 123.732C277.521 123.436 277.601 123.084 277.601 122.676ZM282.613 120.384C282.829 120.032 283.109 119.756 283.453 119.556C283.805 119.356 284.205 119.256 284.653 119.256V121.02H284.209C283.681 121.02 283.281 121.144 283.009 121.392C282.745 121.64 282.613 122.072 282.613 122.688V126H280.933V119.352H282.613V120.384ZM291.965 122.532C291.965 122.772 291.949 122.988 291.917 123.18H287.057C287.097 123.66 287.265 124.036 287.561 124.308C287.857 124.58 288.221 124.716 288.653 124.716C289.277 124.716 289.721 124.448 289.985 123.912H291.797C291.605 124.552 291.237 125.08 290.693 125.496C290.149 125.904 289.481 126.108 288.689 126.108C288.049 126.108 287.473 125.968 286.961 125.688C286.457 125.4 286.061 124.996 285.773 124.476C285.493 123.956 285.353 123.356 285.353 122.676C285.353 121.988 285.493 121.384 285.773 120.864C286.053 120.344 286.445 119.944 286.949 119.664C287.453 119.384 288.033 119.244 288.689 119.244C289.321 119.244 289.885 119.38 290.381 119.652C290.885 119.924 291.273 120.312 291.545 120.816C291.825 121.312 291.965 121.884 291.965 122.532ZM290.225 122.052C290.217 121.62 290.061 121.276 289.757 121.02C289.453 120.756 289.081 120.624 288.641 120.624C288.225 120.624 287.873 120.752 287.585 121.008C287.305 121.256 287.133 121.604 287.069 122.052H290.225ZM101.427 140.652C101.427 139.98 101.559 139.384 101.823 138.864C102.095 138.344 102.459 137.944 102.915 137.664C103.379 137.384 103.895 137.244 104.463 137.244C104.959 137.244 105.391 137.344 105.759 137.544C106.135 137.744 106.435 137.996 106.659 138.3V137.352H108.351V144H106.659V143.028C106.443 143.34 106.143 143.6 105.759 143.808C105.383 144.008 104.947 144.108 104.451 144.108C103.891 144.108 103.379 143.964 102.915 143.676C102.459 143.388 102.095 142.984 101.823 142.464C101.559 141.936 101.427 141.332 101.427 140.652ZM106.659 140.676C106.659 140.268 106.579 139.92 106.419 139.632C106.259 139.336 106.043 139.112 105.771 138.96C105.499 138.8 105.207 138.72 104.895 138.72C104.583 138.72 104.295 138.796 104.031 138.948C103.767 139.1 103.551 139.324 103.383 139.62C103.223 139.908 103.143 140.252 103.143 140.652C103.143 141.052 103.223 141.404 103.383 141.708C103.551 142.004 103.767 142.232 104.031 142.392C104.303 142.552 104.591 142.632 104.895 142.632C105.207 142.632 105.499 142.556 105.771 142.404C106.043 142.244 106.259 142.02 106.419 141.732C106.579 141.436 106.659 141.084 106.659 140.676ZM113.676 137.256C114.468 137.256 115.108 137.508 115.596 138.012C116.084 138.508 116.328 139.204 116.328 140.1V144H114.648V140.328C114.648 139.8 114.516 139.396 114.252 139.116C113.988 138.828 113.628 138.684 113.172 138.684C112.708 138.684 112.34 138.828 112.068 139.116C111.804 139.396 111.672 139.8 111.672 140.328V144H109.992V137.352H111.672V138.18C111.896 137.892 112.18 137.668 112.524 137.508C112.876 137.34 113.26 137.256 113.676 137.256ZM124.286 137.352L120.17 147.144H118.382L119.822 143.832L117.158 137.352H119.042L120.758 141.996L122.498 137.352H124.286ZM127.147 138.732V141.948C127.147 142.172 127.199 142.336 127.303 142.44C127.415 142.536 127.599 142.584 127.855 142.584H128.635V144H127.579C126.163 144 125.455 143.312 125.455 141.936V138.732H124.663V137.352H125.455V135.708H127.147V137.352H128.635V138.732H127.147ZM133.588 137.256C134.092 137.256 134.54 137.368 134.932 137.592C135.324 137.808 135.628 138.132 135.844 138.564C136.068 138.988 136.18 139.5 136.18 140.1V144H134.5V140.328C134.5 139.8 134.368 139.396 134.104 139.116C133.84 138.828 133.48 138.684 133.024 138.684C132.56 138.684 132.192 138.828 131.92 139.116C131.656 139.396 131.524 139.8 131.524 140.328V144H129.844V135.12H131.524V138.18C131.74 137.892 132.028 137.668 132.388 137.508C132.748 137.34 133.148 137.256 133.588 137.256ZM138.629 136.56C138.333 136.56 138.085 136.468 137.885 136.284C137.693 136.092 137.597 135.856 137.597 135.576C137.597 135.296 137.693 135.064 137.885 134.88C138.085 134.688 138.333 134.592 138.629 134.592C138.925 134.592 139.169 134.688 139.361 134.88C139.561 135.064 139.661 135.296 139.661 135.576C139.661 135.856 139.561 136.092 139.361 136.284C139.169 136.468 138.925 136.56 138.629 136.56ZM139.457 137.352V144H137.777V137.352H139.457ZM144.801 137.256C145.593 137.256 146.233 137.508 146.721 138.012C147.209 138.508 147.453 139.204 147.453 140.1V144H145.773V140.328C145.773 139.8 145.641 139.396 145.377 139.116C145.113 138.828 144.753 138.684 144.297 138.684C143.833 138.684 143.465 138.828 143.193 139.116C142.929 139.396 142.797 139.8 142.797 140.328V144H141.117V137.352H142.797V138.18C143.021 137.892 143.305 137.668 143.649 137.508C144.001 137.34 144.385 137.256 144.801 137.256ZM151.655 137.244C152.151 137.244 152.587 137.344 152.963 137.544C153.339 137.736 153.635 137.988 153.851 138.3V137.352H155.543V144.048C155.543 144.664 155.419 145.212 155.171 145.692C154.923 146.18 154.551 146.564 154.055 146.844C153.559 147.132 152.959 147.276 152.255 147.276C151.311 147.276 150.535 147.056 149.927 146.616C149.327 146.176 148.987 145.576 148.907 144.816H150.575C150.663 145.12 150.851 145.36 151.139 145.536C151.435 145.72 151.791 145.812 152.207 145.812C152.695 145.812 153.091 145.664 153.395 145.368C153.699 145.08 153.851 144.64 153.851 144.048V143.016C153.635 143.328 153.335 143.588 152.951 143.796C152.575 144.004 152.143 144.108 151.655 144.108C151.095 144.108 150.583 143.964 150.119 143.676C149.655 143.388 149.287 142.984 149.015 142.464C148.751 141.936 148.619 141.332 148.619 140.652C148.619 139.98 148.751 139.384 149.015 138.864C149.287 138.344 149.651 137.944 150.107 137.664C150.571 137.384 151.087 137.244 151.655 137.244ZM153.851 140.676C153.851 140.268 153.771 139.92 153.611 139.632C153.451 139.336 153.235 139.112 152.963 138.96C152.691 138.8 152.399 138.72 152.087 138.72C151.775 138.72 151.487 138.796 151.223 138.948C150.959 139.1 150.743 139.324 150.575 139.62C150.415 139.908 150.335 140.252 150.335 140.652C150.335 141.052 150.415 141.404 150.575 141.708C150.743 142.004 150.959 142.232 151.223 142.392C151.495 142.552 151.783 142.632 152.087 142.632C152.399 142.632 152.691 142.556 152.963 142.404C153.235 142.244 153.451 142.02 153.611 141.732C153.771 141.436 153.851 141.084 153.851 140.676ZM161.723 138.384C161.939 138.032 162.219 137.756 162.563 137.556C162.915 137.356 163.315 137.256 163.763 137.256V139.02H163.319C162.791 139.02 162.391 139.144 162.119 139.392C161.855 139.64 161.723 140.072 161.723 140.688V144H160.043V137.352H161.723V138.384ZM171.074 140.532C171.074 140.772 171.058 140.988 171.026 141.18H166.166C166.206 141.66 166.374 142.036 166.67 142.308C166.966 142.58 167.33 142.716 167.762 142.716C168.386 142.716 168.83 142.448 169.094 141.912H170.906C170.714 142.552 170.346 143.08 169.802 143.496C169.258 143.904 168.59 144.108 167.798 144.108C167.158 144.108 166.582 143.968 166.07 143.688C165.566 143.4 165.17 142.996 164.882 142.476C164.602 141.956 164.462 141.356 164.462 140.676C164.462 139.988 164.602 139.384 164.882 138.864C165.162 138.344 165.554 137.944 166.058 137.664C166.562 137.384 167.142 137.244 167.798 137.244C168.43 137.244 168.994 137.38 169.49 137.652C169.994 137.924 170.382 138.312 170.654 138.816C170.934 139.312 171.074 139.884 171.074 140.532ZM169.334 140.052C169.326 139.62 169.17 139.276 168.866 139.02C168.562 138.756 168.19 138.624 167.75 138.624C167.334 138.624 166.982 138.752 166.694 139.008C166.414 139.256 166.242 139.604 166.178 140.052H169.334ZM171.869 140.652C171.869 139.98 172.001 139.384 172.265 138.864C172.537 138.344 172.901 137.944 173.357 137.664C173.821 137.384 174.337 137.244 174.905 137.244C175.401 137.244 175.833 137.344 176.201 137.544C176.577 137.744 176.877 137.996 177.101 138.3V137.352H178.793V144H177.101V143.028C176.885 143.34 176.585 143.6 176.201 143.808C175.825 144.008 175.389 144.108 174.893 144.108C174.333 144.108 173.821 143.964 173.357 143.676C172.901 143.388 172.537 142.984 172.265 142.464C172.001 141.936 171.869 141.332 171.869 140.652ZM177.101 140.676C177.101 140.268 177.021 139.92 176.861 139.632C176.701 139.336 176.485 139.112 176.213 138.96C175.941 138.8 175.649 138.72 175.337 138.72C175.025 138.72 174.737 138.796 174.473 138.948C174.209 139.1 173.993 139.324 173.825 139.62C173.665 139.908 173.585 140.252 173.585 140.652C173.585 141.052 173.665 141.404 173.825 141.708C173.993 142.004 174.209 142.232 174.473 142.392C174.745 142.552 175.033 142.632 175.337 142.632C175.649 142.632 175.941 142.556 176.213 142.404C176.485 142.244 176.701 142.02 176.861 141.732C177.021 141.436 177.101 141.084 177.101 140.676ZM180.001 140.652C180.001 139.98 180.133 139.384 180.397 138.864C180.669 138.344 181.037 137.944 181.501 137.664C181.965 137.384 182.481 137.244 183.049 137.244C183.481 137.244 183.893 137.34 184.285 137.532C184.677 137.716 184.989 137.964 185.221 138.276V135.12H186.925V144H185.221V143.016C185.013 143.344 184.721 143.608 184.345 143.808C183.969 144.008 183.533 144.108 183.037 144.108C182.477 144.108 181.965 143.964 181.501 143.676C181.037 143.388 180.669 142.984 180.397 142.464C180.133 141.936 180.001 141.332 180.001 140.652ZM185.233 140.676C185.233 140.268 185.153 139.92 184.993 139.632C184.833 139.336 184.617 139.112 184.345 138.96C184.073 138.8 183.781 138.72 183.469 138.72C183.157 138.72 182.869 138.796 182.605 138.948C182.341 139.1 182.125 139.324 181.957 139.62C181.797 139.908 181.717 140.252 181.717 140.652C181.717 141.052 181.797 141.404 181.957 141.708C182.125 142.004 182.341 142.232 182.605 142.392C182.877 142.552 183.165 142.632 183.469 142.632C183.781 142.632 184.073 142.556 184.345 142.404C184.617 142.244 184.833 142.02 184.993 141.732C185.153 141.436 185.233 141.084 185.233 140.676ZM188.134 140.652C188.134 139.98 188.266 139.384 188.53 138.864C188.802 138.344 189.166 137.944 189.622 137.664C190.086 137.384 190.602 137.244 191.17 137.244C191.666 137.244 192.098 137.344 192.466 137.544C192.842 137.744 193.142 137.996 193.366 138.3V137.352H195.058V144H193.366V143.028C193.15 143.34 192.85 143.6 192.466 143.808C192.09 144.008 191.654 144.108 191.158 144.108C190.598 144.108 190.086 143.964 189.622 143.676C189.166 143.388 188.802 142.984 188.53 142.464C188.266 141.936 188.134 141.332 188.134 140.652ZM193.366 140.676C193.366 140.268 193.286 139.92 193.126 139.632C192.966 139.336 192.75 139.112 192.478 138.96C192.206 138.8 191.914 138.72 191.602 138.72C191.29 138.72 191.002 138.796 190.738 138.948C190.474 139.1 190.258 139.324 190.09 139.62C189.93 139.908 189.85 140.252 189.85 140.652C189.85 141.052 189.93 141.404 190.09 141.708C190.258 142.004 190.474 142.232 190.738 142.392C191.01 142.552 191.298 142.632 191.602 142.632C191.914 142.632 192.206 142.556 192.478 142.404C192.75 142.244 192.966 142.02 193.126 141.732C193.286 141.436 193.366 141.084 193.366 140.676ZM198.379 138.324C198.595 138.004 198.891 137.744 199.267 137.544C199.651 137.344 200.087 137.244 200.575 137.244C201.143 137.244 201.655 137.384 202.111 137.664C202.575 137.944 202.939 138.344 203.203 138.864C203.475 139.376 203.611 139.972 203.611 140.652C203.611 141.332 203.475 141.936 203.203 142.464C202.939 142.984 202.575 143.388 202.111 143.676C201.655 143.964 201.143 144.108 200.575 144.108C200.079 144.108 199.643 144.012 199.267 143.82C198.899 143.62 198.603 143.364 198.379 143.052V144H196.699V135.12H198.379V138.324ZM201.895 140.652C201.895 140.252 201.811 139.908 201.643 139.62C201.483 139.324 201.267 139.1 200.995 138.948C200.731 138.796 200.443 138.72 200.131 138.72C199.827 138.72 199.539 138.8 199.267 138.96C199.003 139.112 198.787 139.336 198.619 139.632C198.459 139.928 198.379 140.276 198.379 140.676C198.379 141.076 198.459 141.424 198.619 141.72C198.787 142.016 199.003 142.244 199.267 142.404C199.539 142.556 199.827 142.632 200.131 142.632C200.443 142.632 200.731 142.552 200.995 142.392C201.267 142.232 201.483 142.004 201.643 141.708C201.811 141.412 201.895 141.06 201.895 140.652ZM206.512 135.12V144H204.832V135.12H206.512ZM214.352 140.532C214.352 140.772 214.336 140.988 214.304 141.18H209.444C209.484 141.66 209.652 142.036 209.948 142.308C210.244 142.58 210.608 142.716 211.04 142.716C211.664 142.716 212.108 142.448 212.372 141.912H214.184C213.992 142.552 213.624 143.08 213.08 143.496C212.536 143.904 211.868 144.108 211.076 144.108C210.436 144.108 209.86 143.968 209.348 143.688C208.844 143.4 208.448 142.996 208.16 142.476C207.88 141.956 207.74 141.356 207.74 140.676C207.74 139.988 207.88 139.384 208.16 138.864C208.44 138.344 208.832 137.944 209.336 137.664C209.84 137.384 210.42 137.244 211.076 137.244C211.708 137.244 212.272 137.38 212.768 137.652C213.272 137.924 213.66 138.312 213.932 138.816C214.212 139.312 214.352 139.884 214.352 140.532ZM212.612 140.052C212.604 139.62 212.448 139.276 212.144 139.02C211.84 138.756 211.468 138.624 211.028 138.624C210.612 138.624 210.26 138.752 209.972 139.008C209.692 139.256 209.52 139.604 209.456 140.052H212.612ZM227.647 137.388L225.595 144H224.155L222.823 139.116L221.491 144H220.051L217.987 137.388H219.379L220.759 142.704L222.163 137.388H223.591L224.935 142.68L226.303 137.388H227.647ZM229.366 136.512C229.118 136.512 228.91 136.428 228.742 136.26C228.574 136.092 228.49 135.884 228.49 135.636C228.49 135.388 228.574 135.18 228.742 135.012C228.91 134.844 229.118 134.76 229.366 134.76C229.606 134.76 229.81 134.844 229.978 135.012C230.146 135.18 230.23 135.388 230.23 135.636C230.23 135.884 230.146 136.092 229.978 136.26C229.81 136.428 229.606 136.512 229.366 136.512ZM230.038 137.388V144H228.67V137.388H230.038ZM233.43 138.504V142.164C233.43 142.412 233.486 142.592 233.598 142.704C233.718 142.808 233.918 142.86 234.198 142.86H235.038V144H233.958C233.342 144 232.87 143.856 232.542 143.568C232.214 143.28 232.05 142.812 232.05 142.164V138.504H231.27V137.388H232.05V135.744H233.43V137.388H235.038V138.504H233.43ZM239.718 137.28C240.222 137.28 240.67 137.388 241.062 137.604C241.462 137.82 241.774 138.14 241.998 138.564C242.23 138.988 242.346 139.5 242.346 140.1V144H240.99V140.304C240.99 139.712 240.842 139.26 240.546 138.948C240.25 138.628 239.846 138.468 239.334 138.468C238.822 138.468 238.414 138.628 238.11 138.948C237.814 139.26 237.666 139.712 237.666 140.304V144H236.298V135.12H237.666V138.156C237.898 137.876 238.19 137.66 238.542 137.508C238.902 137.356 239.294 137.28 239.718 137.28ZM253.197 137.388V144H251.829V143.22C251.613 143.492 251.329 143.708 250.977 143.868C250.633 144.02 250.265 144.096 249.873 144.096C249.353 144.096 248.885 143.988 248.469 143.772C248.061 143.556 247.737 143.236 247.497 142.812C247.265 142.388 247.149 141.876 247.149 141.276V137.388H248.505V141.072C248.505 141.664 248.653 142.12 248.949 142.44C249.245 142.752 249.649 142.908 250.161 142.908C250.673 142.908 251.077 142.752 251.373 142.44C251.677 142.12 251.829 141.664 251.829 141.072V137.388H253.197ZM257.402 144.108C256.882 144.108 256.414 144.016 255.998 143.832C255.59 143.64 255.266 143.384 255.026 143.064C254.786 142.736 254.658 142.372 254.642 141.972H256.058C256.082 142.252 256.214 142.488 256.454 142.68C256.702 142.864 257.01 142.956 257.378 142.956C257.762 142.956 258.058 142.884 258.266 142.74C258.482 142.588 258.59 142.396 258.59 142.164C258.59 141.916 258.47 141.732 258.23 141.612C257.998 141.492 257.626 141.36 257.114 141.216C256.618 141.08 256.214 140.948 255.902 140.82C255.59 140.692 255.318 140.496 255.086 140.232C254.862 139.968 254.75 139.62 254.75 139.188C254.75 138.836 254.854 138.516 255.062 138.228C255.27 137.932 255.566 137.7 255.95 137.532C256.342 137.364 256.79 137.28 257.294 137.28C258.046 137.28 258.65 137.472 259.106 137.856C259.57 138.232 259.818 138.748 259.85 139.404H258.482C258.458 139.108 258.338 138.872 258.122 138.696C257.906 138.52 257.614 138.432 257.246 138.432C256.886 138.432 256.61 138.5 256.418 138.636C256.226 138.772 256.13 138.952 256.13 139.176C256.13 139.352 256.194 139.5 256.322 139.62C256.45 139.74 256.606 139.836 256.79 139.908C256.974 139.972 257.246 140.056 257.606 140.16C258.086 140.288 258.478 140.42 258.782 140.556C259.094 140.684 259.362 140.876 259.586 141.132C259.81 141.388 259.926 141.728 259.934 142.152C259.934 142.528 259.83 142.864 259.622 143.16C259.414 143.456 259.118 143.688 258.734 143.856C258.358 144.024 257.914 144.108 257.402 144.108ZM263.656 135.54C264.472 135.54 265.124 135.764 265.612 136.212C266.108 136.66 266.356 137.272 266.356 138.048C266.356 138.856 266.1 139.464 265.588 139.872C265.076 140.28 264.396 140.484 263.548 140.484L263.5 141.432H262.312L262.252 139.548H262.648C263.424 139.548 264.016 139.444 264.424 139.236C264.84 139.028 265.048 138.632 265.048 138.048C265.048 137.624 264.924 137.292 264.676 137.052C264.436 136.812 264.1 136.692 263.668 136.692C263.236 136.692 262.896 136.808 262.648 137.04C262.4 137.272 262.276 137.596 262.276 138.012H260.992C260.992 137.532 261.1 137.104 261.316 136.728C261.532 136.352 261.84 136.06 262.24 135.852C262.648 135.644 263.12 135.54 263.656 135.54ZM262.888 144.084C262.64 144.084 262.432 144 262.264 143.832C262.096 143.664 262.012 143.456 262.012 143.208C262.012 142.96 262.096 142.752 262.264 142.584C262.432 142.416 262.64 142.332 262.888 142.332C263.128 142.332 263.332 142.416 263.5 142.584C263.668 142.752 263.752 142.96 263.752 143.208C263.752 143.456 263.668 143.664 263.5 143.832C263.332 144 263.128 144.084 262.888 144.084Z" fill="#E3E4FF"/>
<defs>
<filter id="filter0_dddddd" x="80.7232" y="76.8281" width="18.4864" height="19.1785" filterUnits="userSpaceOnUse" color-interpolation-filters="sRGB">
<feFlood flood-opacity="0" result="BackgroundImageFix"/>
<feColorMatrix in="SourceAlpha" type="matrix" values="0 0 0 0 0 0 0 0 0 0 0 0 0 0 0 0 0 0 127 0" result="hardAlpha"/>
<feOffset dy="0.105343"/>
<feGaussianBlur stdDeviation="0.0430951"/>
<feColorMatrix type="matrix" values="0 0 0 0 0 0 0 0 0 0 0 0 0 0 0 0 0 0 0.0253031 0"/>
<feBlend mode="normal" in2="BackgroundImageFix" result="effect1_dropShadow"/>
<feColorMatrix in="SourceAlpha" type="matrix" values="0 0 0 0 0 0 0 0 0 0 0 0 0 0 0 0 0 0 127 0" result="hardAlpha"/>
<feOffset dy="0.253155"/>
<feGaussianBlur stdDeviation="0.103563"/>
<feColorMatrix type="matrix" values="0 0 0 0 0 0 0 0 0 0 0 0 0 0 0 0 0 0 0.0363503 0"/>
<feBlend mode="normal" in2="effect1_dropShadow" result="effect2_dropShadow"/>
<feColorMatrix in="SourceAlpha" type="matrix" values="0 0 0 0 0 0 0 0 0 0 0 0 0 0 0 0 0 0 127 0" result="hardAlpha"/>
<feOffset dy="0.476668"/>
<feGaussianBlur stdDeviation="0.195001"/>
<feColorMatrix type="matrix" values="0 0 0 0 0 0 0 0 0 0 0 0 0 0 0 0 0 0 0.045 0"/>
<feBlend mode="normal" in2="effect2_dropShadow" result="effect3_dropShadow"/>
<feColorMatrix in="SourceAlpha" type="matrix" values="0 0 0 0 0 0 0 0 0 0 0 0 0 0 0 0 0 0 127 0" result="hardAlpha"/>
<feOffset dy="0.850295"/>
<feGaussianBlur stdDeviation="0.347848"/>
<feColorMatrix type="matrix" values="0 0 0 0 0 0 0 0 0 0 0 0 0 0 0 0 0 0 0.0536497 0"/>
<feBlend mode="normal" in2="effect3_dropShadow" result="effect4_dropShadow"/>
<feColorMatrix in="SourceAlpha" type="matrix" values="0 0 0 0 0 0 0 0 0 0 0 0 0 0 0 0 0 0 127 0" result="hardAlpha"/>
<feOffset dy="1.59038"/>
<feGaussianBlur stdDeviation="0.650612"/>
<feColorMatrix type="matrix" values="0 0 0 0 0.794414 0 0 0 0 0.554046 0 0 0 0 0.983276 0 0 0 0.0646969 0"/>
<feBlend mode="normal" in2="effect4_dropShadow" result="effect5_dropShadow"/>
<feColorMatrix in="SourceAlpha" type="matrix" values="0 0 0 0 0 0 0 0 0 0 0 0 0 0 0 0 0 0 127 0" result="hardAlpha"/>
<feOffset dy="3.80678"/>
<feGaussianBlur stdDeviation="1.55732"/>
<feColorMatrix type="matrix" values="0 0 0 0 0.459943 0 0 0 0 0.420958 0 0 0 0 0.908276 0 0 0 0.09 0"/>
<feBlend mode="normal" in2="effect5_dropShadow" result="effect6_dropShadow"/>
<feBlend mode="normal" in="SourceGraphic" in2="effect6_dropShadow" result="shape"/>
</filter>
</defs>
</svg>
